<?xml version="1.0" encoding="utf-8"?>
<!-- Generator: Adobe Illustrator 14.0.0, SVG Export Plug-In . SVG Version: 6.00 Build 43363)  -->
<!DOCTYPE svg PUBLIC "-//W3C//DTD SVG 1.1//EN" "http://www.w3.org/Graphics/SVG/1.1/DTD/svg11.dtd">
<svg version="1.1" id="Layer_1" xmlns="http://www.w3.org/2000/svg" xmlns:xlink="http://www.w3.org/1999/xlink" x="0px" y="0px"
	 width="347.333px" height="349px" viewBox="0 0 347.333 349" enable-background="new 0 0 347.333 349" xml:space="preserve">
<g>
	
		<linearGradient id="SVGID_1_" gradientUnits="userSpaceOnUse" x1="-65.4355" y1="130.9697" x2="1135.3306" y2="130.9697" gradientTransform="matrix(-0.0024 -0.0024 0.003 -0.003 -3642.0686 -3531.0771)">
		<stop  offset="0" style="stop-color:#AEAFB1"/>
		<stop  offset="0.4941" style="stop-color:#FFFFFF"/>
		<stop  offset="1" style="stop-color:#B2B3B3"/>
	</linearGradient>
	<path fill="url(#SVGID_1_)" d="M698.53,49.179c-0.659,0.151-1.318,0.58-1.903,1.176l-160.432,160.51
		c-0.656,0.504-1.027,1.164-1.174,1.818l6.306,0.078l157.642-157.49L698.53,49.179z"/>
	
		<linearGradient id="SVGID_2_" gradientUnits="userSpaceOnUse" x1="82806.9766" y1="25520.4297" x2="84008.5469" y2="25520.4297" gradientTransform="matrix(0.0032 -0.0032 0.1367 0.1367 -2975.7629 -3089.6409)">
		<stop  offset="0" style="stop-color:#AEAFB1"/>
		<stop  offset="0.4941" style="stop-color:#FFFFFF"/>
		<stop  offset="1" style="stop-color:#B2B3B3"/>
	</linearGradient>
	<path fill="url(#SVGID_2_)" d="M698.53,49.179l0.438,6.091l157.576,157.568h6.668c-0.076-0.659-0.439-1.327-1.176-1.974
		l-160.43-160.51C700.583,49.394,699.56,48.964,698.53,49.179z"/>
	
		<linearGradient id="SVGID_3_" gradientUnits="userSpaceOnUse" x1="-65.4521" y1="295.1021" x2="1135.3402" y2="295.1021" gradientTransform="matrix(-0.0027 -0.0027 0.0035 -0.0035 -3421.0034 -3312.4043)">
		<stop  offset="0" style="stop-color:#C7C7C9"/>
		<stop  offset="0.4941" style="stop-color:#FFFFFF"/>
		<stop  offset="1" style="stop-color:#C6C6C8"/>
	</linearGradient>
	<path fill="url(#SVGID_3_)" d="M862.037,215.773c0.953-0.964,1.322-1.909,1.176-2.934h-6.668L698.969,370.408l0.591,6.957
		c0.729-0.061,1.315-0.506,2.048-1.182L862.037,215.773z"/>
	
		<linearGradient id="SVGID_4_" gradientUnits="userSpaceOnUse" x1="4898.8887" y1="-23205.8398" x2="6099.6357" y2="-23205.8398" gradientTransform="matrix(-0.0544 0.0943 -0.2273 -0.1312 -4261.9668 -3317.8506)">
		<stop  offset="0.0039" style="stop-color:#7C3588"/>
		<stop  offset="1" style="stop-color:#5C2871"/>
	</linearGradient>
	<path fill="url(#SVGID_4_)" d="M856.545,212.839L698.969,55.271l-0.141,314.995c0.875-0.816,0.951-0.816,0.141,0.143
		L856.545,212.839z"/>
	
		<linearGradient id="SVGID_5_" gradientUnits="userSpaceOnUse" x1="94999.4922" y1="25435.8281" x2="96200.7734" y2="25435.8281" gradientTransform="matrix(0.0034 -0.0034 0.1371 0.1371 -3193.8518 -2868.3376)">
		<stop  offset="0" style="stop-color:#AEAFB1"/>
		<stop  offset="0.4941" style="stop-color:#FFFFFF"/>
		<stop  offset="1" style="stop-color:#B2B3B3"/>
	</linearGradient>
	<path fill="url(#SVGID_5_)" d="M535.021,212.683c-0.293,1.029,0.146,2.06,1.174,3.09l160.432,160.411
		c0.951,1.039,1.977,1.404,2.933,1.182l-0.591-6.957l-0.141-0.143L541.327,212.761L535.021,212.683z"/>
	
		<linearGradient id="SVGID_6_" gradientUnits="userSpaceOnUse" x1="28498.3945" y1="-16604.7109" x2="29699.1621" y2="-16604.7109" gradientTransform="matrix(0.024 0.129 -0.2578 0.048 -4333.6348 -2686.8059)">
		<stop  offset="0" style="stop-color:#BC1E65"/>
		<stop  offset="1" style="stop-color:#7E1643"/>
	</linearGradient>
	<path fill="url(#SVGID_6_)" d="M698.828,370.266l0.141-314.995l-157.642,157.49L698.828,370.266z"/>
	
		<line fill="none" stroke="#C2BFC3" stroke-width="0.4397" stroke-linecap="round" stroke-linejoin="round" x1="698.969" y1="55.271" x2="698.828" y2="370.266"/>
	<g>
		
			<linearGradient id="SVGID_7_" gradientUnits="userSpaceOnUse" x1="32025.0898" y1="-20098.4023" x2="33225.9531" y2="-20098.4023" gradientTransform="matrix(0 0.1001 -0.2495 0 -4315.6528 -3128.0229)">
			<stop  offset="0" style="stop-color:#FFFFFF;stop-opacity:0.78"/>
			<stop  offset="1" style="stop-color:#FFFFFF;stop-opacity:0.11"/>
		</linearGradient>
		<path fill="url(#SVGID_7_)" d="M847.527,214.091l1.172-1.252L698.969,63.03L549.097,212.761l1.242,1.33
			C595.483,165.485,694.575,165.485,847.527,214.091z"/>
	</g>
	<g>
		<g>
			<path fill="#FFFFFF" d="M706.963,251.898c0,2.271,0.799,4.179,2.344,5.786c1.609,1.555,3.514,2.352,5.715,2.352
				c2.271,0,4.104-0.797,5.785-2.352c1.545-1.606,2.343-3.515,2.343-5.786c0-2.202-0.798-4.109-2.343-5.716
				c-1.681-1.535-3.514-2.352-5.785-2.352c-2.201,0-4.105,0.817-5.715,2.352C707.762,247.789,706.963,249.696,706.963,251.898z"/>
		</g>
		<g>
			<path fill="#FFFFFF" d="M728.359,251.898c0,2.271,0.738,4.179,2.343,5.786c1.616,1.555,3.524,2.352,5.716,2.352
				c2.2,0,4.179-0.797,5.79-2.352c1.545-1.606,2.276-3.515,2.276-5.786c0-2.202-0.731-4.109-2.276-5.716
				c-1.611-1.535-3.59-2.352-5.79-2.352c-2.191,0-4.1,0.817-5.716,2.352C729.098,247.789,728.359,249.696,728.359,251.898z"/>
		</g>
		<g>
			<path fill="#FFFFFF" d="M749.906,251.898c0,2.271,0.809,4.179,2.419,5.786c1.54,1.555,3.443,2.352,5.72,2.352
				c2.191,0,4.101-0.797,5.715-2.352c1.611-1.606,2.344-3.515,2.344-5.786c0-2.202-0.732-4.109-2.344-5.716
				c-1.614-1.535-3.523-2.352-5.715-2.352c-2.276,0-4.18,0.817-5.72,2.352C750.715,247.789,749.906,249.696,749.906,251.898z"/>
		</g>
		<g>
			<path fill="#FFFFFF" d="M771.524,251.898c0,2.271,0.81,4.179,2.423,5.786c1.535,1.555,3.445,2.352,5.717,2.352
				c2.195,0,4.109-0.797,5.714-2.352c1.616-1.606,2.345-3.515,2.345-5.786c0-2.202-0.729-4.109-2.345-5.716
				c-1.604-1.535-3.519-2.352-5.714-2.352c-2.271,0-4.182,0.817-5.717,2.352C772.334,247.789,771.524,249.696,771.524,251.898z"/>
		</g>
	</g>
	<g>
		<path fill="#FFFFFF" d="M736.568,197.08v-7.189h-32.613v42.368h33.422v-7.118H712.82v-11.569h22.063v-7.101H712.82v-9.39H736.568z
			"/>
		<path fill="#FFFFFF" d="M763.686,189.891H744.99v42.368h8.875v-17.667h1.756c2.057,0,3.596,0.151,4.545,0.444
			c0.954,0.369,1.838,0.949,2.635,1.837c0.885,0.868,2.424,2.847,4.695,6.146l6.451,9.239h10.623l-5.352-8.218
			c-2.119-3.29-3.805-5.632-5.053-6.945c-1.318-1.252-2.858-2.423-4.768-3.523c3.813-0.518,6.752-1.835,8.649-3.882
			c1.984-2.121,2.938-4.685,2.938-7.923c0-2.502-0.586-4.764-1.908-6.667c-1.252-1.911-3.01-3.302-5.131-4.036
			C771.817,190.268,768.451,189.891,763.686,189.891z M753.865,207.856V197.08h6.962c3.59,0,5.791,0,6.448,0.151
			c1.393,0.217,2.563,0.808,3.371,1.603c0.737,0.949,1.171,2.063,1.171,3.526c0,1.238-0.293,2.262-0.878,3.148
			c-0.656,0.884-1.394,1.464-2.488,1.757c-1.096,0.366-3.741,0.591-7.992,0.591H753.865z"/>
		<path fill="#FFFFFF" d="M670.24,199.86c1.979-2.187,4.619-3.376,7.844-3.376c2.42,0,4.395,0.596,6.085,1.911
			c1.61,1.25,2.712,3.004,3.219,5.204l8.8-1.985c-0.954-3.432-2.492-6.061-4.541-7.835c-3.303-3.082-7.702-4.619-13.125-4.619
			c-6.077,0-11.063,1.903-14.875,5.876c-3.812,3.877-5.717,9.373-5.717,16.477c0,6.685,1.905,11.882,5.717,15.759
			c3.739,3.817,8.572,5.726,14.438,5.726c4.692,0,8.574-1.1,11.651-3.363c3.004-2.211,5.208-5.654,6.599-10.347l-8.648-2.564
			c-0.737,3.079-1.906,5.429-3.668,6.802c-1.684,1.404-3.732,2.141-6.081,2.141c-3.147,0-5.785-1.101-7.841-3.372
			c-1.98-2.281-3.004-6.087-3.004-11.428C667.092,205.802,668.188,202.131,670.24,199.86z"/>
		<path fill="#FFFFFF" d="M623.849,189.891h-8.573v42.368h8.207v-27.636l17.811,27.636h8.867v-42.368h-8.277v28.306L623.849,189.891
			z"/>
	</g>
</g>
<g>
	<path fill="#1488C9" d="M171.992,335.749c-4.513-0.128-9.909-0.384-16.092-0.766c-16.178-1.935-31.88-6.075-46.778-12.316
		c-20.199-8.619-38.106-20.657-53.237-35.788c-15.407-15.154-27.45-32.724-35.781-52.208l-1.774-4.175
		c-0.003-0.007-0.007-0.016-0.01-0.024c-1.199-2.801-2.101-5.275-2.827-7.327l-0.268-0.795c-0.342-1.013-0.75-2.216-1.156-3.733
		c-0.925-2.78-1.699-5.514-2.435-8.602l-0.205-0.883c-0.387-1.655-0.935-4.009-1.571-6.985c-0.01-0.044-0.019-0.088-0.026-0.133
		l-1.011-5.675c-0.649-4.022-1.164-7.885-1.538-11.517c-0.005-0.044-0.008-0.089-0.01-0.134l-0.254-4.661
		c-0.25-3.724-0.382-7.494-0.382-10.778l0.122-6.462c0-0.027,0.002-0.054,0.003-0.082c0.122-6.042,0.794-12.714,2.055-20.395
		c0.945-5.812,1.995-10.761,3.205-15.125c0.004-0.016,0.008-0.031,0.013-0.046c0.622-2.378,1.142-4.198,1.549-5.413l0.119-0.366
		c2.326-7.878,5.015-15.019,8.205-21.779c0.38-0.805,1.267-1.238,2.137-1.044c0.869,0.195,1.486,0.964,1.486,1.855v4.058
		c0,6.774,0.505,13.547,1.5,20.132c1.313,8.225,3.563,16.48,6.871,25.226c5.283,13.753,13.022,26.62,23,38.237l4.565,5.327
		c0.346,0.404,0.506,0.934,0.444,1.461c-8.431,70.87,12.841,110.006,65.033,119.643c7.867,1.813,16.861,2.751,27.577,2.886h2.256
		c33.383,0,59.675-9.517,78.141-28.286c24.039-24.433,35.764-65.422,34.848-121.826c-0.004-0.211,0.027-0.42,0.093-0.622
		c0.084-0.258,0.227-0.693,3.518-7.47c8.244-17.114,12.362-35.518,12.237-54.698c0-13.755-2.137-27.268-6.35-40.184
		c-0.058-0.1-0.106-0.206-0.142-0.306c-3.471-10.287-8.223-20.083-14.122-29.116c-0.497-0.761-0.386-1.766,0.264-2.401
		c0.653-0.633,1.66-0.717,2.408-0.205c6.425,4.419,12.383,9.16,18.213,14.493l1.087,1.035c2.306,2.199,3.974,3.787,5.122,5.05
		c0.913,0.91,1.758,1.795,2.471,2.545c0.488,0.514,0.913,0.96,1.272,1.32l1.615,1.616c0.046,0.044,0.089,0.09,0.131,0.138
		c7.578,8.483,14.156,17.576,20.109,27.798l5.861,10.831c0.943,2.017,1.839,4.061,2.731,6.231c0.003,0.003,0.003,0.009,0.007,0.013
		c3.582,7.904,6.436,16.127,8.721,25.134l2.669,12.081c0.014,0.054,0.023,0.106,0.031,0.159c1.529,9.188,2.304,18.796,2.304,28.554
		v7.448c0,0.067,0,0.135-0.006,0.204c-0.129,1.888-0.262,3.839-0.52,5.787c-0.345,5.566-1.242,11.93-2.809,19.898l-3.181,13.485
		c-0.009,0.041-0.019,0.081-0.031,0.122c-0.014,0.048-0.03,0.095-0.047,0.143l-6.457,17.851l-1.85,3.617
		c-0.021,0.101-0.048,0.196-0.082,0.274c-0.363,0.87-0.847,1.903-1.407,3.097c-0.426,0.906-0.897,1.911-1.393,3.012
		c-0.02,0.047-0.042,0.091-0.065,0.136c-0.014,0.027-0.027,0.051-0.042,0.076c-0.49,0.854-0.973,1.826-1.458,2.797
		c-0.102,0.2-0.253,0.453-0.467,0.798l-0.368,0.601l-1.732,3.183c-0.049,0.141-0.112,0.275-0.192,0.401l-1.74,2.791
		c-1.681,2.706-3.418,5.503-5.396,8.422l-2.292,3.182c-0.022,0.033-0.045,0.064-0.069,0.096l-5.049,6.692
		c-4.07,5.019-8.148,9.436-12.513,13.553c-15.255,15.126-33.204,27.164-53.314,35.745c-14.946,6.26-30.604,10.401-46.551,12.313
		c-6.502,0.386-11.981,0.643-16.401,0.773H171.992L171.992,335.749z M22.914,231.56l0.688,1.619
		c8.135,19.023,19.896,36.183,34.961,50.999c14.795,14.797,32.301,26.564,52.039,34.987c14.562,6.099,29.921,10.149,45.64,12.035
		c6.032,0.365,11.387,0.621,15.805,0.746h2.481c4.326-0.127,9.767-0.383,16.117-0.758c15.483-1.859,30.8-5.91,45.408-12.028
		c19.654-8.388,37.206-20.156,52.151-34.976c4.273-4.034,8.24-8.33,12.16-13.163l3.283-4.352c-0.078-0.026-0.154-0.057-0.228-0.093
		l-4.44-2.155c-0.945-0.458-1.339-1.597-0.88-2.542c0.459-0.943,1.598-1.336,2.542-0.879l4.29,2.082
		c0.394,0.112,0.778,0.221,1.152,0.312l1.568-2.176c1.903-2.813,3.621-5.577,5.283-8.252l1.689-2.788
		c0.038-0.11,0.084-0.215,0.141-0.317l2.198-3.866c0.026-0.042,0.05-0.082,0.074-0.119c-4.113,0.427-7.975,0.191-11.716-0.719
		c-1.021-0.249-1.646-1.278-1.398-2.298c0.249-1.02,1.278-1.649,2.297-1.398c4.05,0.984,8.292,1.077,12.943,0.283
		c0.357-0.781,0.698-1.507,1.016-2.182c0.485-1.037,0.913-1.945,1.247-2.725c0.035-0.177,0.088-0.351,0.157-0.486l1.898-3.679
		l4.914-13.622c-4.891,1.715-10.716,2.811-17.661,3.33c-1.035,0.059-1.96-0.708-2.038-1.755c-0.079-1.047,0.707-1.96,1.755-2.038
		c8.062-0.602,14.47-1.998,19.548-4.262l2.959-12.539c1.369-6.962,2.215-12.687,2.623-17.794
		c-6.021,7.732-14.551,13.972-25.873,18.958c-0.956,0.423-2.084-0.011-2.507-0.973s0.013-2.084,0.974-2.507
		c13.283-5.851,22.458-13.455,28.033-23.233v-6.984c0-7.167-0.428-14.248-1.272-21.132c-6.376,14.2-14.986,25.225-25.653,32.824
		c-0.854,0.61-2.044,0.411-2.652-0.445c-0.61-0.855-0.412-2.043,0.444-2.652c11.488-8.186,20.492-20.638,26.771-37.018
		l-2.538-11.493c-1.58-6.223-3.447-12.081-5.652-17.722c-2.405,14.613-10.068,32.001-22.851,51.82
		c-0.567,0.884-1.747,1.137-2.629,0.567c-0.884-0.569-1.137-1.747-0.567-2.629c14.529-22.53,22.27-41.692,23.009-56.963
		c-0.821-1.983-1.644-3.857-2.465-5.62l-5.781-10.678c-3.685-6.326-7.625-12.224-11.912-17.811
		c6.392,21.349,3.257,48.309-9.373,80.373c-0.387,0.979-1.489,1.455-2.468,1.073c-0.978-0.385-1.457-1.49-1.073-2.467
		c14.538-36.903,16.231-66.661,5.032-88.456l-1.436-1.438c-0.379-0.38-0.825-0.848-1.338-1.386c-0.693-0.73-1.517-1.594-2.466-2.542
		c-1.12-1.229-2.746-2.777-4.996-4.92l-1.06-1.011c-3.326-3.042-6.706-5.896-10.199-8.607c3.8,6.859,6.993,14.068,9.532,21.527
		c0.138,0.209,0.249,0.461,0.299,0.779c4.312,13.258,6.497,27.127,6.497,41.227c0.13,19.752-4.115,38.722-12.616,56.367
		c-2.224,4.582-2.975,6.195-3.226,6.762c0.873,57.263-11.22,99.037-35.946,124.167c-19.208,19.522-46.411,29.42-80.852,29.42h-2.28
		c-11.016-0.138-20.273-1.107-28.326-2.964c-53.507-9.879-76.455-51.262-68.134-122.986l-4.024-4.694
		c-10.26-11.946-18.223-25.189-23.666-39.358c-3.405-8.997-5.718-17.499-7.075-25.998c-0.783-5.182-1.271-10.467-1.458-15.775
		c-1.633,4.146-3.115,8.484-4.478,13.099l-0.14,0.431c-0.355,1.063-0.828,2.703-1.374,4.775c5.345,24.081,12.023,40.57,19.85,49.01
		c0.714,0.77,0.669,1.973-0.103,2.688c-0.77,0.713-1.972,0.67-2.688-0.103c-7.438-8.022-13.828-22.594-19.032-43.381
		c-0.448,2.188-0.873,4.517-1.279,7.015c-1.202,7.323-1.856,13.686-1.997,19.434c5.479,11.09,11.466,18.894,17.8,23.196
		c0.868,0.591,1.095,1.772,0.504,2.643c-0.593,0.868-1.777,1.094-2.643,0.504c-5.605-3.809-10.9-10.016-15.792-18.503
		c0.023,2.952,0.151,6.294,0.375,9.704l0.004,0.758l0.212,3.239c4.981,6.555,9.863,10.938,14.516,13.034
		c0.958,0.431,1.383,1.557,0.953,2.516c-0.43,0.958-1.558,1.382-2.517,0.952c-3.984-1.795-8.053-4.994-12.139-9.537
		c0.219,1.584,0.461,3.199,0.726,4.835l0.914,5.138c2.252,2.38,5.543,3.917,9.796,4.571c1.04,0.16,1.751,1.131,1.592,2.169
		c-0.16,1.039-1.142,1.748-2.169,1.591c-3.049-0.469-5.712-1.342-7.967-2.607c0.145,0.631,0.278,1.2,0.396,1.703l0.204,0.878
		c0.628,2.638,1.287,5.013,2.053,7.387c1.447,0.345,2.873,0.258,4.335-0.255c0.988-0.35,2.076,0.169,2.427,1.159
		s-0.167,2.076-1.159,2.426c-1.45,0.512-2.915,0.732-4.366,0.67c0.069,0.207,0.136,0.405,0.2,0.597l0.264,0.784
		c0.605,1.711,1.353,3.762,2.304,6.058c0.614-0.045,1.289-0.292,1.969-0.726c0.885-0.565,2.062-0.303,2.626,0.582
		c0.565,0.886,0.304,2.062-0.583,2.626C24.594,230.973,23.753,231.343,22.914,231.56L22.914,231.56z M141.741,300.928
		c-1.514,0-3.045-0.158-4.515-0.475c-4.494-0.952-8.506-3.027-11.918-6.166c-3.446-3.047-6.173-6.951-8.083-11.579
		c-2.042-4.337-3.381-9.257-4.061-14.958c-0.003-0.034-0.006-0.065-0.008-0.099c-0.392-5.852,0.006-11.533,1.18-16.892
		c1.276-5.739,3.35-11.163,6.164-16.127c2.607-4.822,5.777-8.813,9.671-12.169c2.376-2.258,5.487-4.278,9.444-6.118
		c0.626-0.386,1.669-0.827,2.688-1.119c2.744-1.051,5.968-1.489,9.184-1.208c1.221,0.005,2.556,0.124,4.105,0.405
		c4.553,0.964,8.487,2.974,12.081,6.154c3.237,2.968,5.907,6.681,8.186,11.371c1.954,4.808,3.19,9.848,3.732,15.094
		c0.525,5.662,0.139,11.287-1.179,17.218c-1.184,5.53-3.165,10.903-5.885,15.96c-2.736,4.816-6.024,8.946-9.794,12.311
		c-2.008,1.774-4.22,3.31-6.584,4.57c-1.515,0.815-3.244,1.594-5.281,2.38c-2.494,0.916-5.133,1.395-7.662,1.395
		C142.722,300.91,142.231,300.928,141.741,300.928L141.741,300.928z M116.948,267.35c0.632,5.27,1.861,9.792,3.757,13.825
		c1.724,4.17,4.117,7.604,7.152,10.289c2.93,2.695,6.34,4.458,10.164,5.27c1.58,0.34,3.331,0.457,5.059,0.345
		c2.211-0.004,4.396-0.403,6.446-1.156c1.858-0.717,3.446-1.431,4.825-2.171c2.109-1.126,4.077-2.491,5.856-4.063
		c3.453-3.082,6.481-6.889,8.991-11.307c2.529-4.701,4.386-9.737,5.497-14.929c1.234-5.554,1.597-10.794,1.11-16.037
		c-0.503-4.87-1.654-9.56-3.42-13.918c-2.013-4.135-4.404-7.474-7.259-10.09c-3.063-2.711-6.43-4.435-10.268-5.248
		c-1.265-0.229-2.405-0.34-3.536-0.34c-2.802-0.232-5.456,0.119-7.822,1.018c-0.848,0.249-1.596,0.562-2.108,0.868
		c-3.75,1.755-6.53,3.551-8.671,5.583c-3.604,3.107-6.491,6.749-8.893,11.19c-2.646,4.667-4.584,9.739-5.778,15.104
		C116.958,256.567,116.587,261.875,116.948,267.35L116.948,267.35z M184.051,207.928c-8.032,0-16.524-1.438-25.445-4.276
		c-11.64-3.793-21.007-8.922-27.85-15.251c-3.476-3.335-5.809-6.389-7.161-9.358c-1.703-3.551-2.026-6.866-0.94-9.814
		c1.058-3.184,3.249-5.682,6.485-7.371c2.016-1.153,4.543-2.077,7.447-2.708l3.898-0.652c2.584-0.275,5.083-0.407,7.542-0.407
		c7.14,0,15.269,1.439,24.162,4.274c11.379,3.752,20.695,8.876,27.711,15.24c3.346,3.211,5.779,6.331,7.271,9.306
		c1.481,3.399,1.772,6.78,0.886,9.873c-1.09,3.128-3.298,5.607-6.595,7.472c-2.096,0.975-3.833,1.598-5.453,1.974
		c-0.783,0.225-2.703,0.741-5.734,1.399C188.232,207.829,186.156,207.928,184.051,207.928L184.051,207.928z M148.027,161.895
		c-2.326,0-4.692,0.125-7.031,0.371l-3.691,0.618c-2.435,0.533-4.599,1.318-6.341,2.312c-2.429,1.268-3.952,2.988-4.719,5.29
		c-0.737,2.004-0.461,4.322,0.797,6.946c1.148,2.523,3.269,5.271,6.321,8.2c6.413,5.93,15.307,10.782,26.409,14.399
		c10.757,3.423,20.825,4.716,29.917,3.848c2.815-0.625,4.7-1.14,5.369-1.331c1.453-0.34,2.95-0.879,4.668-1.674
		c2.332-1.326,3.962-3.113,4.707-5.24c0.607-2.129,0.375-4.625-0.707-7.11c-1.253-2.493-3.428-5.263-6.421-8.135
		c-6.579-5.968-15.438-10.826-26.29-14.403C162.514,163.272,154.774,161.895,148.027,161.895L148.027,161.895z M182.53,202.666
		c-6.79,0-14.276-1.329-22.291-3.964c-9.097-2.945-16.635-6.765-22.401-11.35c-6.307-4.765-8.789-9.325-7.337-13.524
		c1.126-3.363,4.27-5.438,9.603-6.326c0.015-0.002,0.029-0.005,0.043-0.007c0.875-0.125,2.357-0.273,4.457-0.273
		c6.919-0.382,15.261,0.973,24.679,4.023c9.31,2.885,16.646,6.519,22.406,11.1c6.355,4.911,8.763,9.375,7.339,13.633
		c-0.813,2.767-3.314,4.741-7.412,5.803c-1.512,0.414-3.638,0.685-6.473,0.819C184.285,202.645,183.413,202.666,182.53,202.666
		L182.53,202.666z M140.706,171.258c-5.648,0.946-6.366,3.09-6.603,3.795c-1.068,3.089,2.711,6.756,6.067,9.292
		c5.445,4.328,12.581,7.932,21.249,10.739c8.617,2.833,16.536,4.073,23.536,3.716c2.526-0.121,4.434-0.354,5.681-0.697
		c2.739-0.71,4.334-1.806,4.763-3.267c0.856-2.563-1.188-5.736-6.058-9.499c-5.404-4.3-12.335-7.717-21.206-10.467
		c-8.998-2.915-16.88-4.208-23.427-3.849C142.746,171.024,141.461,171.152,140.706,171.258L140.706,171.258z"/>
</g>
</svg>
