<?xml version="1.0" encoding="utf-8"?>
<!-- Generator: Adobe Illustrator 17.0.1, SVG Export Plug-In . SVG Version: 6.00 Build 0)  -->
<!DOCTYPE svg PUBLIC "-//W3C//DTD SVG 1.1//EN" "http://www.w3.org/Graphics/SVG/1.1/DTD/svg11.dtd">
<svg version="1.1" id="Layer_1" xmlns="http://www.w3.org/2000/svg" xmlns:xlink="http://www.w3.org/1999/xlink" x="0px" y="0px"
	 width="179.355px" height="178.71px" viewBox="0 0 179.355 178.71" enable-background="new 0 0 179.355 178.71"
	 xml:space="preserve">
<circle fill="#FFFFFF" cx="90.101" cy="89.187" r="85.823"/>
<g>
	<path fill="#292C33" d="M96.078,154.35c-1.453,0.152-2.935,0.255-4.404,0.308c-17.029,0.611-33.294-5.461-45.805-17.098
		C33.36,125.92,26.13,110.135,25.517,93.107c-0.504-13.948,2.91-25.314,11.056-36.854l0.691-0.957
		c0.006,1.209,0.054,2.809,0.214,4.339c0.659,6.284,2.461,10.208,4.545,14.755c0.442,0.958,0.896,1.948,1.354,2.995
		c1.713,3.899,3.485,7.929,3.837,12.298c0.207,2.564-0.038,5.664-0.279,8.66c-0.2,2.538-0.413,5.146-0.333,7.305
		c0.753,20.945,18.402,37.362,39.346,36.607c0.872-0.03,1.753-0.091,2.62-0.188c19.774-2.071,34.262-20.372,33.543-40.26
		c-0.062-1.765,0.392-7.227,0.742-8.853c1.002-4.717,3.166-9.146,5.254-13.423c3.681-7.536,4.536-14.948,2.876-25.771
		c-0.701-4.606-0.535-7.715-0.337-9.289l1.921,2.105c11.324,11.655,20.096,26.328,20.659,41.927
		C154.431,121.942,129.331,150.861,96.078,154.35L96.078,154.35z M35.546,62.94l-0.883,1.692
		c-4.335,8.711-6.256,17.988-5.882,28.356c0.583,16.159,7.437,31.142,19.308,42.182c11.871,11.05,27.308,16.808,43.466,16.226
		c1.392-0.053,2.797-0.147,4.178-0.295c31.554-3.307,55.37-30.752,54.228-62.478c-0.457-12.688-7.53-25.561-15.246-35.599
		l-2.028-2.379l0.932,2.939c3.273,10.913,1.438,19.158-2.573,27.375c-2.103,4.301-4.083,8.354-5,12.676
		c-0.305,1.403-0.724,6.521-0.669,8.056c0.775,21.592-14.995,41.378-36.469,43.627c-0.94,0.102-1.896,0.164-2.846,0.203
		c-22.74,0.816-41.904-17.02-42.723-39.757c-0.087-2.349,0.131-5.054,0.34-7.667c0.228-2.879,0.469-5.851,0.283-8.151
		c-0.312-3.822-1.897-7.429-3.57-11.244c-0.359-0.814-0.73-1.613-1.103-2.413c-1.6-3.432-3.259-6.982-3.442-11.405L35.546,62.94z"/>
	<g>
		<g>
			<path fill="#292C33" d="M137.83,88.062c-0.551,0-1.077-0.315-1.317-0.85c-0.324-0.726,0-1.581,0.727-1.905
				c9.878-4.436,10.03-9.856,10.03-9.909c-0.02-0.797,0.61-1.455,1.407-1.475c0.787,0.027,1.458,0.611,1.475,1.406
				c0.005,0.297,0.035,7.325-11.733,12.605C138.226,88.021,138.027,88.062,137.83,88.062L137.83,88.062z"/>
		</g>
	</g>
	<g>
		<g>
			<path fill="#292C33" d="M137.456,100.333c-0.68,0-1.288-0.483-1.416-1.175c-0.146-0.782,0.368-1.536,1.151-1.683
				c10.024-1.879,12.856-9.492,12.972-9.816c0.268-0.746,1.089-1.142,1.838-0.875c0.75,0.265,1.143,1.082,0.882,1.831
				c-0.136,0.388-3.442,9.5-15.162,11.694C137.632,100.327,137.543,100.333,137.456,100.333L137.456,100.333z"/>
		</g>
	</g>
	<g>
		<g>
			<path fill="#292C33" d="M136.581,112.894c-0.788,0-1.434-0.636-1.441-1.427c-0.007-0.797,0.63-1.448,1.428-1.458
				c10.768-0.105,12.59-9.188,12.665-9.574c0.146-0.782,0.9-1.298,1.681-1.152c0.783,0.146,1.299,0.9,1.152,1.683
				c-0.022,0.118-2.359,11.798-15.47,11.929C136.592,112.894,136.585,112.894,136.581,112.894L136.581,112.894z"/>
		</g>
	</g>
	<g>
		<g>
			<path fill="#292C33" d="M35.742,89.954c-0.306,0-0.615-0.096-0.877-0.295c-7.427-5.713-7.806-11.926-7.819-12.188
				c-0.039-0.796,0.578-1.47,1.372-1.507c0.797-0.025,1.466,0.572,1.506,1.36c0.017,0.228,0.409,5.211,6.698,10.048
				c0.631,0.485,0.748,1.391,0.263,2.021C36.602,89.761,36.174,89.954,35.742,89.954L35.742,89.954z"/>
		</g>
	</g>
	<g>
		<g>
			<path fill="#292C33" d="M34.097,98.036c-0.195,0-0.395-0.041-0.586-0.125c-8.317-3.708-7.762-10.795-7.733-11.096
				c0.071-0.792,0.781-1.382,1.566-1.3c0.791,0.07,1.374,0.769,1.306,1.557c-0.019,0.241-0.325,5.372,6.035,8.206
				c0.727,0.324,1.055,1.177,0.732,1.903C35.174,97.717,34.648,98.036,34.097,98.036L34.097,98.036z"/>
		</g>
	</g>
	<g>
		<g>
			<path fill="#292C33" d="M32.598,107.085c-0.086,0-0.175-0.009-0.263-0.024c-6.198-1.139-6.663-10.229-6.68-10.616
				c-0.035-0.796,0.581-1.47,1.376-1.504c0.777-0.044,1.469,0.58,1.503,1.377l0,0c0.002,0.072,0.44,7.196,4.322,7.908
				c0.783,0.144,1.302,0.896,1.156,1.678C33.886,106.598,33.282,107.085,32.598,107.085L32.598,107.085z"/>
		</g>
	</g>
	<g>
		<g>
			<path fill="#292C33" d="M133.292,125.904c-0.111,0-0.223,0-0.337-0.003c-0.793-0.01-1.431-0.662-1.419-1.46
				c0.01-0.787,0.655-1.422,1.441-1.422c0.005,0,0.013,0,0.019,0c10.606,0.138,12.114-7.612,12.173-7.941
				c0.141-0.78,0.882-1.313,1.666-1.167c0.782,0.136,1.308,0.872,1.175,1.657C147.991,115.669,146.115,125.904,133.292,125.904
				L133.292,125.904z"/>
		</g>
	</g>
	<path fill="#292C33" d="M77.754,134.96c-0.087-0.013-0.172-0.025-0.259-0.04c-0.083-0.019-0.169-0.033-0.255-0.057
		c-0.082-0.02-0.169-0.04-0.255-0.063c-0.083-0.021-0.167-0.047-0.252-0.072c-1.371-0.42-2.57-1.238-3.563-2.36
		c-0.991-1.118-1.778-2.539-2.329-4.164c-0.552-1.625-0.864-3.455-0.911-5.392c-0.043-1.938,0.179-3.984,0.704-6.041
		c0.491-1.935,1.206-3.713,2.082-5.279c0.876-1.568,1.917-2.927,3.059-4.021c1.144-1.094,2.389-1.923,3.676-2.438
		c1.286-0.512,2.616-0.705,3.924-0.526c0.086,0.012,0.171,0.027,0.256,0.04c0.085,0.018,0.169,0.033,0.256,0.053
		c0.082,0.015,0.17,0.036,0.253,0.059c0.084,0.021,0.168,0.043,0.253,0.069c1.379,0.403,2.585,1.212,3.587,2.328
		c1.006,1.115,1.805,2.539,2.365,4.17c0.561,1.634,0.881,3.477,0.93,5.431c0.047,1.954-0.18,4.019-0.712,6.096
		c-0.497,1.946-1.222,3.732-2.11,5.304c-0.886,1.574-1.937,2.931-3.089,4.02c-1.152,1.087-2.406,1.909-3.693,2.405
		C80.382,134.978,79.056,135.158,77.754,134.96 M83.805,101.256c-1.67-0.227-3.362-0.006-4.993,0.601
		c-1.628,0.606-3.198,1.597-4.632,2.905c-1.434,1.308-2.733,2.934-3.822,4.816c-1.087,1.88-1.964,4.015-2.557,6.343
		c-0.635,2.491-0.882,4.973-0.788,7.328c0.093,2.356,0.529,4.584,1.26,6.571c0.734,1.985,1.767,3.732,3.056,5.114
		c1.292,1.383,2.837,2.407,4.599,2.947c0.116,0.036,0.229,0.068,0.348,0.098c0.117,0.034,0.231,0.063,0.346,0.091
		c0.116,0.024,0.231,0.049,0.349,0.069c0.116,0.022,0.232,0.043,0.348,0.062c1.668,0.251,3.358,0.055,4.991-0.526
		c1.638-0.586,3.219-1.555,4.669-2.855c1.451-1.299,2.767-2.923,3.872-4.814c1.105-1.886,1.998-4.04,2.602-6.392
		c0.646-2.518,0.899-5.025,0.802-7.405c-0.101-2.383-0.544-4.63-1.295-6.629c-0.748-2-1.801-3.748-3.109-5.125
		c-1.308-1.376-2.872-2.382-4.647-2.901c-0.117-0.033-0.234-0.065-0.347-0.095c-0.116-0.029-0.234-0.055-0.349-0.082
		c-0.117-0.024-0.235-0.044-0.35-0.066C84.038,101.291,83.922,101.274,83.805,101.256"/>
	<path fill="#292C33" d="M93.422,96.756c-0.518-0.07-1.043-0.152-1.584-0.248c-0.535-0.093-1.083-0.199-1.639-0.32
		c-0.555-0.12-1.12-0.254-1.694-0.398c-0.574-0.145-1.156-0.304-1.748-0.473c-1.876-0.545-3.522-1.124-4.95-1.711
		c-1.429-0.579-2.64-1.17-3.651-1.733c-1.012-0.562-1.822-1.097-2.448-1.57c-0.626-0.476-1.065-0.89-1.334-1.215l-0.468-0.563
		l0.67-0.233c0.271-0.096,0.625-0.182,1.061-0.251c0.435-0.067,0.952-0.119,1.545-0.144c0.593-0.023,1.266-0.021,2.01,0.018
		c0.747,0.036,1.569,0.107,2.462,0.226c0.513,0.066,1.039,0.147,1.574,0.24c0.537,0.095,1.083,0.196,1.637,0.315
		c0.553,0.119,1.116,0.249,1.686,0.393c0.571,0.14,1.151,0.295,1.736,0.46c1.883,0.539,3.539,1.121,4.979,1.705
		c1.442,0.588,2.67,1.183,3.697,1.749c1.026,0.567,1.852,1.108,2.489,1.591c0.638,0.479,1.089,0.903,1.364,1.232l0.477,0.573
		l-0.685,0.231c-0.277,0.097-0.637,0.181-1.079,0.249c-0.443,0.066-0.967,0.115-1.572,0.141c-0.603,0.02-1.286,0.015-2.043-0.025
		C95.16,96.954,94.326,96.877,93.422,96.756 M81.913,84.889c-1.111-0.144-2.285-0.249-3.437-0.274
		c-1.148-0.023-2.271,0.033-3.284,0.213c-1.01,0.181-1.909,0.485-2.61,0.954c-0.7,0.468-1.202,1.108-1.416,1.956
		c-0.303,1.188,0.088,2.344,0.94,3.436c0.853,1.09,2.164,2.12,3.706,3.057c1.544,0.938,3.319,1.782,5.093,2.505
		c1.773,0.722,3.546,1.323,5.075,1.768c0.61,0.174,1.217,0.34,1.819,0.49c0.602,0.153,1.199,0.291,1.79,0.419
		c0.595,0.129,1.181,0.245,1.76,0.348c0.579,0.102,1.152,0.189,1.716,0.267c0.388,0.052,0.771,0.099,1.145,0.137
		c0.376,0.04,0.745,0.073,1.104,0.099c0.36,0.027,0.711,0.048,1.055,0.059c0.344,0.013,0.678,0.017,1.002,0.014
		c0.988-0.006,1.867-0.076,2.643-0.214c0.777-0.132,1.446-0.332,2.01-0.595c0.564-0.262,1.019-0.585,1.368-0.974
		c0.349-0.387,0.59-0.839,0.72-1.351c0.309-1.2-0.098-2.374-0.973-3.48c-0.877-1.105-2.222-2.148-3.797-3.092
		c-1.573-0.945-3.375-1.793-5.166-2.516c-1.79-0.721-3.568-1.314-5.1-1.754c-0.148-0.042-0.456-0.125-0.885-0.237
		c-0.429-0.109-0.983-0.246-1.626-0.393c-0.642-0.144-1.375-0.3-2.161-0.444C83.619,85.139,82.776,85.001,81.913,84.889"/>
</g>
</svg>
