<?xml version="1.0" encoding="utf-8"?>
<!-- Generator: Adobe Illustrator 14.0.0, SVG Export Plug-In . SVG Version: 6.00 Build 43363)  -->
<!DOCTYPE svg PUBLIC "-//W3C//DTD SVG 1.1//EN" "http://www.w3.org/Graphics/SVG/1.1/DTD/svg11.dtd">
<svg version="1.1" id="Layer_1" xmlns="http://www.w3.org/2000/svg" xmlns:xlink="http://www.w3.org/1999/xlink" x="0px" y="0px"
	 width="89.008px" height="89px" viewBox="0 0 89.008 89" enable-background="new 0 0 89.008 89" xml:space="preserve">
<g>
	<circle fill="#A90100" cx="44.504" cy="44.499" r="43.188"/>
	<g>
		<path fill="#FFFFFF" d="M22.555,61.934c3.266,2.924,7.473,4.797,12.635,5.635c5.166,0.838,9.758,0.401,13.768-1.306
			c4.017-1.719,6.293-4.209,6.836-7.475c0.524-3.271-0.845-6.369-4.101-9.273c-3.264-2.918-7.472-4.793-12.621-5.623
			c-5.162-0.854-9.75-0.416-13.766,1.297c-4.016,1.725-6.293,4.229-6.838,7.502C17.926,55.954,19.289,59.03,22.555,61.934
			L22.555,61.934z M28.063,59.159c-2.104-1.888-2.973-3.886-2.629-6.002c0.342-2.119,1.805-3.732,4.402-4.845
			c2.602-1.116,5.58-1.391,8.92-0.832c3.33,0.545,6.049,1.75,8.166,3.634c2.117,1.885,2.996,3.885,2.652,6.002
			c-0.359,2.1-1.838,3.707-4.426,4.815c-2.603,1.117-5.573,1.41-8.902,0.865C32.904,62.255,30.178,61.04,28.063,59.159
			L28.063,59.159z"/>
		<path fill="none" stroke="#A11D21" stroke-width="0.5" d="M22.555,61.934c3.266,2.924,7.473,4.797,12.635,5.635
			c5.166,0.838,9.758,0.401,13.768-1.306c4.017-1.719,6.293-4.209,6.836-7.475c0.524-3.271-0.845-6.369-4.101-9.273
			c-3.264-2.918-7.472-4.793-12.621-5.623c-5.162-0.854-9.75-0.416-13.766,1.297c-4.016,1.725-6.293,4.229-6.838,7.502
			C17.926,55.954,19.289,59.03,22.555,61.934L22.555,61.934z M28.063,59.159c-2.104-1.888-2.973-3.886-2.629-6.002
			c0.342-2.119,1.805-3.732,4.402-4.845c2.602-1.116,5.58-1.391,8.92-0.832c3.33,0.545,6.049,1.75,8.166,3.634
			c2.117,1.885,2.996,3.885,2.652,6.002c-0.359,2.1-1.838,3.707-4.426,4.815c-2.603,1.117-5.573,1.41-8.902,0.865
			C32.904,62.255,30.178,61.04,28.063,59.159L28.063,59.159z"/>
	</g>
	<g>
		<path fill="#FFFFFF" d="M65.93,44.479c-0.43-3.609-3.148-6.418-8.162-8.436c-5.027-2.002-10.902-2.605-17.604-1.82
			c-6.688,0.756-12.252,2.672-16.695,5.754c-4.461,3.104-6.479,6.451-6.049,10.059c0.393,3.604,3.111,6.41,8.141,8.41
			s10.895,2.618,17.6,1.842c6.688-0.771,12.26-2.695,16.721-5.775C64.32,51.417,66.336,48.071,65.93,44.479L65.93,44.479z
			 M52.012,38.948c3.371,1.262,5.197,3.037,5.455,5.336c0.26,2.278-1.104,4.412-4.102,6.395c-3.002,1.986-6.754,3.23-11.262,3.759
			c-4.527,0.51-8.471,0.143-11.824-1.104c-3.381-1.264-5.207-3.031-5.467-5.313c-0.26-2.293,1.105-4.435,4.111-6.418
			c3-1.984,6.75-3.232,11.264-3.76C44.695,37.329,48.639,37.7,52.012,38.948L52.012,38.948z"/>
		<path fill="none" stroke="#A11D21" stroke-width="0.5" d="M65.93,44.479c-0.43-3.609-3.148-6.418-8.162-8.436
			c-5.027-2.002-10.902-2.605-17.604-1.82c-6.688,0.756-12.252,2.672-16.695,5.754c-4.461,3.104-6.479,6.451-6.049,10.059
			c0.393,3.604,3.111,6.41,8.141,8.41s10.895,2.618,17.6,1.842c6.688-0.771,12.26-2.695,16.721-5.775
			C64.32,51.417,66.336,48.071,65.93,44.479L65.93,44.479z M52.012,38.948c3.371,1.262,5.197,3.037,5.455,5.336
			c0.26,2.278-1.104,4.412-4.102,6.395c-3.002,1.986-6.754,3.23-11.262,3.759c-4.527,0.51-8.471,0.143-11.824-1.104
			c-3.381-1.264-5.207-3.031-5.467-5.313c-0.26-2.293,1.105-4.435,4.111-6.418c3-1.984,6.75-3.232,11.264-3.76
			C44.695,37.329,48.639,37.7,52.012,38.948L52.012,38.948z"/>
	</g>
	<g>
		<path fill="#FFFFFF" d="M72.891,28.688c-0.861-2.396-4.377-3.432-10.543-3.123c-6.168,0.328-13.166,1.898-21.007,4.721
			c-7.832,2.818-14.123,6.066-18.879,9.756c-4.752,3.691-6.801,6.721-6.15,9.098c0.664,2.378,4.061,3.419,10.211,3.105
			c6.168-0.313,13.172-1.885,21.021-4.705c7.848-2.836,14.252-6.092,19.205-9.781C71.693,34.083,73.744,31.065,72.891,28.688
			L72.891,28.688z M58.555,37.313c-3.256,2.342-7.465,4.41-12.611,6.203c-5.162,1.783-9.772,2.785-13.815,2.994
			c-4.049,0.191-6.352-0.463-6.91-1.967c-0.58-1.506,0.77-3.432,4.035-5.773c3.242-2.334,7.447-4.395,12.609-6.174
			c5.146-1.801,9.748-2.807,13.798-2.996c4.059-0.201,6.369,0.449,6.93,1.965C63.15,33.073,61.801,34.989,58.555,37.313
			L58.555,37.313z"/>
		<path fill="none" stroke="#A11D21" stroke-width="0.5" d="M72.891,28.688c-0.861-2.396-4.377-3.432-10.543-3.123
			c-6.168,0.328-13.166,1.898-21.007,4.721c-7.832,2.818-14.123,6.066-18.879,9.756c-4.752,3.691-6.801,6.721-6.15,9.098
			c0.664,2.378,4.061,3.419,10.211,3.105c6.168-0.313,13.172-1.885,21.021-4.705c7.848-2.836,14.252-6.092,19.205-9.781
			C71.693,34.083,73.744,31.065,72.891,28.688L72.891,28.688z M58.555,37.313c-3.256,2.342-7.465,4.41-12.611,6.203
			c-5.162,1.783-9.772,2.785-13.815,2.994c-4.049,0.191-6.352-0.463-6.91-1.967c-0.58-1.506,0.77-3.432,4.035-5.773
			c3.242-2.334,7.447-4.395,12.609-6.174c5.146-1.801,9.748-2.807,13.798-2.996c4.059-0.201,6.369,0.449,6.93,1.965
			C63.15,33.073,61.801,34.989,58.555,37.313L58.555,37.313z"/>
	</g>
</g>
</svg>
